<?xml version="1.0" encoding="UTF-8" standalone="no"?>
<!-- Creator: CorelDRAW 2021.5 -->

<svg
   xml:space="preserve"
   width="229.4626mm"
   height="76.041496mm"
   version="1.1"
   style="clip-rule:evenodd;fill-rule:evenodd;image-rendering:optimizeQuality;shape-rendering:geometricPrecision;text-rendering:geometricPrecision"
   viewBox="0 0 2294626 760414.96"
   id="svg4"
   sodipodi:docname="logo horizont.svg"
   inkscape:version="1.4.3 (0d15f75, 2025-12-25)"
   xmlns:inkscape="http://www.inkscape.org/namespaces/inkscape"
   xmlns:sodipodi="http://sodipodi.sourceforge.net/DTD/sodipodi-0.dtd"
   xmlns="http://www.w3.org/2000/svg"
   xmlns:svg="http://www.w3.org/2000/svg"><sodipodi:namedview
   id="namedview4"
   pagecolor="#ffffff"
   bordercolor="#000000"
   borderopacity="0.25"
   inkscape:showpageshadow="2"
   inkscape:pageopacity="0.0"
   inkscape:pagecheckerboard="0"
   inkscape:deskcolor="#d1d1d1"
   inkscape:document-units="mm"
   inkscape:zoom="1.377329"
   inkscape:cx="466.11958"
   inkscape:cy="155.01017"
   inkscape:window-width="1920"
   inkscape:window-height="991"
   inkscape:window-x="-9"
   inkscape:window-y="-9"
   inkscape:window-maximized="1"
   inkscape:current-layer="Слой_x0020_1" />
 <defs
   id="defs2">
  <style
   type="text/css"
   id="style1">
   <![CDATA[
    .fil0 {fill:#4D545D}
    .fil2 {fill:#4D545D;fill-rule:nonzero}
    .fil1 {fill:url(#id0)}
   ]]>
  </style>
  <linearGradient
   id="id0"
   gradientUnits="userSpaceOnUse"
   x1="330849"
   y1="1074509"
   x2="722346"
   y2="1036769">
   <stop
   offset="0"
   style="stop-opacity:1; stop-color:#FF3C02"
   id="stop1" />
   <stop
   offset="1"
   style="stop-opacity:1; stop-color:#F8B02B"
   id="stop2" />
  </linearGradient>
 </defs>
 <g
   id="Слой_x0020_1"
   inkscape:label="Слой 1"
   inkscape:groupmode="layer"
   transform="translate(-368313.27,-609226.43)">
  <metadata
   id="CorelCorpID_0Corel-Layer" />
  <g
   id="_2319883434704"
   transform="translate(30679.273,-61278.565)">
   <path
   class="fil0"
   d="m 734709,681019 207814,463874 H 788518 L 639730,789885 673306,680389 Z m 1300699,266573 c -4947,41233 -19275,77519 -42984,108856 -23709,31338 -55047,55663 -94014,72984 -38964,17317 -83598,25974 -133904,25974 -54428,0 -102052,-10101 -142872,-30306 -40821,-20202 -72571,-48449 -95249,-84735 -22677,-36285 -34019,-78752 -34019,-127408 0,-48655 11342,-91126 34019,-127411 22678,-36285 54428,-64529 95249,-84734 40820,-20206 88444,-30307 142872,-30307 50306,0 94940,8661 133904,25978 38967,17318 70305,41540 94014,72672 23709,31132 38037,67519 42984,109164 h -144729 c -4122,-17730 -11646,-32884 -22576,-45460 -10926,-12573 -25048,-22265 -42365,-29069 -17318,-6804 -37730,-10202 -61232,-10202 -26391,0 -49068,4741 -68036,14223 -18964,9486 -33604,23195 -43911,41131 -10311,17937 -15465,39275 -15465,64015 0,24741 5154,45974 15465,63704 10307,17730 24947,31440 43911,41132 18968,9688 41645,14534 68036,14534 23502,0 43914,-3196 61232,-9587 17317,-6391 31439,-15978 42365,-28761 10930,-12783 18454,-28244 22576,-46387 z m 317908,207814 c -55666,0 -104423,-10101 -146274,-30306 -41852,-20202 -74428,-48449 -97724,-84735 -23296,-36285 -34946,-78752 -34946,-127408 0,-48655 11650,-91126 34946,-127411 23296,-36285 55872,-64529 97724,-84734 41851,-20206 90608,-30307 146274,-30307 55665,0 104422,10101 146274,30307 41852,20205 74427,48449 97724,84734 23296,36285 34946,78756 34946,127411 0,48656 -11650,91123 -34946,127408 -23297,36286 -55872,64533 -97724,84735 -41852,20205 -90609,30306 -146274,30306 z m 0,-128026 c 27625,0 51438,-4640 71438,-13919 19995,-9276 35355,-22472 46075,-39583 10723,-17111 16083,-37418 16083,-60921 0,-23502 -5360,-43813 -16083,-60924 -10720,-17111 -26080,-30306 -46075,-39582 -20000,-9280 -43813,-13916 -71438,-13916 -27625,0 -51439,4636 -71438,13916 -19996,9276 -35355,22471 -46075,39582 -10724,17111 -16084,37422 -16084,60924 0,23503 5360,43810 16084,60921 10720,17111 26079,30307 46075,39583 19999,9279 43813,13919 71438,13919 z"
   id="path2" />
   <polygon
   class="fil1"
   points="687988,680357 544141,680684 337634,1144892 483123,1144892 374758,1430920 697141,1017902 693769,1010144 544638,1010144 "
   id="polygon2"
   style="fill:url(#id0)" />
   <path
   class="fil2"
   d="m 854514,1269686 h 17437 v 93894 h -17437 z m -48558,93894 h -17437 v -93894 h 17437 z m 49899,-40240 h -51374 v -14889 h 51374 z m 115358,40240 v -93894 h 17437 v 93894 z m 160695,1341 c -7332,0 -14061,-1185 -20187,-3554 -6125,-2370 -11469,-5723 -16030,-10060 -4560,-4337 -8093,-9457 -10596,-15359 -2504,-5901 -3756,-12340 -3756,-19315 0,-6975 1252,-13413 3756,-19315 2503,-5902 6058,-11022 10663,-15359 4606,-4337 9994,-7690 16164,-10060 6171,-2369 12922,-3554 20255,-3554 7958,0 15134,1296 21528,3890 6395,2593 11783,6393 16164,11401 l -10999,10731 c -3667,-3666 -7624,-6372 -11872,-8115 -4247,-1744 -8919,-2616 -14017,-2616 -4918,0 -9478,805 -13681,2415 -4203,1609 -7825,3889 -10865,6840 -3040,2951 -5389,6439 -7043,10463 -1654,4024 -2482,8450 -2482,13279 0,4740 828,9121 2482,13145 1654,4024 4003,7534 7043,10530 3040,2995 6617,5298 10731,6908 4113,1609 8674,2414 13681,2414 4650,0 9144,-738 13481,-2213 4337,-1476 8473,-3957 12407,-7445 l 9927,13011 c -4918,3935 -10620,6908 -17103,8920 -6483,2012 -13033,3018 -19651,3018 z m 20255,-14218 v -35143 h 16499 v 37423 z m 179475,-81017 h 17437 v 93894 h -17437 z m -48558,93894 h -17438 v -93894 h 17438 z m 49899,-40240 h -51374 v -14889 h 51374 z m 217167,40240 -41046,-93894 h 18913 l 36620,84907 h -10865 l 37022,-84907 h 17437 l -40912,93894 z m 185109,1341 c -7333,0 -14085,-1207 -20255,-3621 -6170,-2415 -11535,-5790 -16096,-10127 -4560,-4337 -8094,-9434 -10597,-15292 -2504,-5857 -3756,-12273 -3756,-19248 0,-6975 1252,-13391 3756,-19248 2503,-5857 6037,-10954 10597,-15291 4561,-4337 9926,-7713 16096,-10128 6170,-2414 12877,-3621 20120,-3621 7333,0 14063,1207 20189,3621 6125,2415 11468,5791 16029,10128 4560,4337 8092,9434 10596,15291 2504,5857 3756,12273 3756,19248 0,6975 -1252,13414 -3756,19315 -2504,5902 -6036,10999 -10596,15292 -4561,4292 -9904,7645 -16029,10060 -6126,2414 -12811,3621 -20054,3621 z m -135,-15291 c 4740,0 9122,-805 13147,-2414 4024,-1610 7511,-3913 10462,-6908 2951,-2996 5254,-6483 6908,-10463 1654,-3979 2481,-8383 2481,-13212 0,-4829 -827,-9233 -2481,-13212 -1654,-3979 -3957,-7467 -6908,-10463 -2951,-2995 -6438,-5298 -10462,-6907 -4025,-1610 -8407,-2415 -13147,-2415 -4739,0 -9098,805 -13078,2415 -3979,1609 -7466,3912 -10462,6907 -2996,2996 -5321,6484 -6975,10463 -1654,3979 -2482,8383 -2482,13212 0,4740 828,9121 2482,13145 1654,4024 3957,7534 6908,10530 2951,2995 6438,5298 10462,6908 4024,1609 8406,2414 13145,2414 z m 143125,13950 v -93894 h 17437 v 79139 h 49094 v 14755 z m 164720,0 v -79139 h -31120 v -14755 h 79677 v 14755 h -31120 v 79139 z m 117771,0 42254,-93894 h 17169 l 42387,93894 h -18242 l -36352,-84639 h 6975 l -36216,84639 z m 19451,-21730 4694,-13681 h 50704 l 4695,13681 z m 210862,23071 c -7333,0 -14062,-1185 -20188,-3554 -6125,-2370 -11468,-5723 -16029,-10060 -4560,-4337 -8093,-9457 -10596,-15359 -2504,-5901 -3756,-12340 -3756,-19315 0,-6975 1252,-13413 3756,-19315 2503,-5902 6058,-11022 10663,-15359 4606,-4337 9993,-7690 16163,-10060 6171,-2369 12922,-3554 20256,-3554 7958,0 15134,1296 21528,3890 6394,2593 11782,6393 16163,11401 l -10999,10731 c -3666,-3666 -7623,-6372 -11871,-8115 -4247,-1744 -8919,-2616 -14017,-2616 -4919,0 -9479,805 -13682,2415 -4203,1609 -7825,3889 -10865,6840 -3040,2951 -5388,6439 -7042,10463 -1654,4024 -2482,8450 -2482,13279 0,4740 828,9121 2482,13145 1654,4024 4002,7534 7042,10530 3040,2995 6617,5298 10731,6908 4113,1609 8674,2414 13682,2414 4650,0 9144,-738 13481,-2213 4337,-1476 8473,-3957 12407,-7445 l 9926,13011 c -4918,3935 -10619,6908 -17102,8920 -6483,2012 -13033,3018 -19651,3018 z m 20255,-14218 v -35143 h 16498 v 37423 z m 129575,-41984 h 46679 v 14353 h -46679 z m 1341,40240 h 52984 v 14621 h -70421 v -93894 h 68543 v 14621 h -51106 z"
   id="path3" />
   <path
   class="fil0"
   d="m 1126215,881413 v -96486 h 117517 c 18142,0 32264,4122 42365,12370 10105,8248 15154,20206 15154,35873 0,15667 -5049,27625 -15154,35873 -10101,8248 -24223,12370 -42365,12370 z m 57404,102671 114541,160809 h 165137 L 1337638,973937 c 7344,-2709 15313,-5458 22369,-8719 27216,-12573 48449,-30307 63707,-53191 15255,-22883 22884,-49169 22884,-78857 0,-30513 -7629,-57110 -22884,-79787 -15258,-22677 -36491,-40408 -63707,-53190 -27212,-12783 -58756,-19174 -94629,-19174 H 982105 v 463874 h 144110 V 984084 Z"
   id="path4" />
  </g>
 </g>
</svg>
